HIERARCHY
ROOT Model_Hips
{
	OFFSET 0.000000 96.915077 0.000000
	CHANNELS 6 Xposition Yposition Zposition Xrotation Yrotation Zrotation
	JOINT Model_Spine
	{
		OFFSET 0.000000 11.137703 -1.289900
		CHANNELS 3 Xrotation Yrotation Zrotation
		JOINT Model_Spine1
		{
			OFFSET 0.000000 12.993942 -1.504922
			CHANNELS 3 Xrotation Yrotation Zrotation
			JOINT Model_Spine2
			{
				OFFSET 0.000000 14.850220 -1.719911
				CHANNELS 3 Xrotation Yrotation Zrotation
				JOINT Model_Neck
				{
					OFFSET 0.000000 16.706543 -1.934903
					CHANNELS 3 Xrotation Yrotation Zrotation
					JOINT Model_Head
					{
						OFFSET 0.000000 10.471298 2.002100
						CHANNELS 3 Xrotation Yrotation Zrotation
						JOINT Model_HeadTop_End
						{
							OFFSET 0.000000 20.842606 3.985100
							CHANNELS 3 Xrotation Yrotation Zrotation
							End Site
							{
								OFFSET 0.000000 21.220154 0.000000
							}
						}
					}
				}
				JOINT Model_LeftShoulder
				{
					OFFSET 7.008500 14.768600 -1.919946
					CHANNELS 3 Xrotation Yrotation Zrotation
					JOINT Model_LeftArm
					{
						OFFSET 14.126271 -3.718048 0.029937
						CHANNELS 3 Xrotation Yrotation Zrotation
						JOINT Model_LeftForeArm
						{
							OFFSET 28.282801 0.000000 0.000000
							CHANNELS 3 Xrotation Yrotation Zrotation
							JOINT Model_LeftHand
							{
								OFFSET 26.204689 0.000000 0.000000
								CHANNELS 3 Xrotation Yrotation Zrotation
								End Site
								{
									OFFSET 26.204704 0.000000 0.000000
								}
							}
						}
					}
				}
				JOINT Model_RightShoulder
				{
					OFFSET -7.008500 14.768555 -1.949840
					CHANNELS 3 Xrotation Yrotation Zrotation
					JOINT Model_RightArm
					{
						OFFSET -14.126281 -3.718018 -0.029932
						CHANNELS 3 Xrotation Yrotation Zrotation
						JOINT Model_RightForeArm
						{
							OFFSET -28.283798 0.000000 -0.000001
							CHANNELS 3 Xrotation Yrotation Zrotation
							JOINT Model_RightHand
							{
								OFFSET -26.204193 0.000000 -0.000001
								CHANNELS 3 Xrotation Yrotation Zrotation
								End Site
								{
									OFFSET -26.204208 0.000000 -0.000001
								}
							}
						}
					}
				}
			}
		}
	}
	JOINT Model_LeftUpLeg
	{
		OFFSET 8.327700 -6.193199 -0.402800
		CHANNELS 3 Xrotation Yrotation Zrotation
		JOINT Model_LeftLeg
		{
			OFFSET 0.735802 -42.108742 -0.610721
			CHANNELS 3 Xrotation Yrotation Zrotation
			JOINT Model_LeftFoot
			{
				OFFSET -0.735806 -36.833748 -0.172876
				CHANNELS 3 Xrotation Yrotation Zrotation
				JOINT Model_LeftToeBase
				{
					OFFSET -0.565857 -11.977769 16.297714
					CHANNELS 3 Xrotation Yrotation Zrotation
					JOINT Model_LeftToe_End
					{
						OFFSET -0.111712 -0.312793 7.857784
						CHANNELS 3 Xrotation Yrotation Zrotation
						End Site
						{
							OFFSET -0.111712 -0.312793 7.857784
						}
					}
				}
			}
		}
	}
	JOINT Model_RightUpLeg
	{
		OFFSET -8.327700 -6.193199 -0.516500
		CHANNELS 3 Xrotation Yrotation Zrotation
		JOINT Model_RightLeg
		{
			OFFSET -0.735785 -42.108738 -0.434061
			CHANNELS 3 Xrotation Yrotation Zrotation
			JOINT Model_RightFoot
			{
				OFFSET 0.735776 -36.833748 -0.021630
				CHANNELS 3 Xrotation Yrotation Zrotation
				JOINT Model_RightToeBase
				{
					OFFSET 0.565817 -11.977745 15.903093
					CHANNELS 3 Xrotation Yrotation Zrotation
					JOINT Model_RightToe_End
					{
						OFFSET 0.111702 -0.312791 7.811342
						CHANNELS 3 Xrotation Yrotation Zrotation
						End Site
						{
							OFFSET 0.111702 -0.312791 7.811342
						}
					}
				}
			}
		}
	}
}
MOTION
Frames: 11
Frame Time: 0.016667
5.168489 95.261543 -63.523621 -8.928054 0.051910 -3.708541 16.078520 -0.449274 2.173366 8.008982 0.758476 0.439265 7.821063 1.116930 0.539172 -1.044925 0.832005 -0.413910 -1.043768 0.838689 -0.372299 -0.000000 0.000000 -0.000000 0.416451 -9.001026 -13.189167 -6.788330 1.110734 -63.445088 -0.000002 -39.301424 0.000009 0.000000 0.000000 -0.000000 0.228858 6.099294 14.745975 2.128635 15.661557 53.989862 0.000019 30.120113 -0.000001 0.000003 -0.000001 0.000001 -3.611854 -1.766480 1.793671 30.552993 6.826720 2.298459 -18.013676 -0.662718 -2.274745 0.000275 0.000001 -0.000367 0.000000 -0.000000 -0.000000 -11.303516 -9.615826 -3.587326 40.601564 0.686777 0.834357 -8.000992 -3.742375 5.027874 -9.706466 0.082756 -1.501122 0.000000 0.000001 0.000000 
5.152816 95.193619 -64.727882 -9.136530 -0.525594 -4.031848 15.703141 0.482079 2.048286 7.961301 0.970331 0.412027 7.768144 1.331220 0.509485 -0.937427 0.667915 -0.330966 -0.935397 0.674609 -0.290693 -0.000001 0.000000 -0.000000 0.430408 -8.799021 -13.029002 -4.645184 1.086675 -64.663716 -0.000002 -36.414341 -0.000019 -0.000001 -0.000001 -0.000000 0.200723 6.188140 14.844894 1.772059 15.875424 53.362468 0.000020 31.634086 -0.000027 0.000001 -0.000001 0.000001 -4.559426 -1.780836 2.146535 31.300513 7.268955 2.103460 -17.581402 -0.650818 -2.325641 0.000249 -0.000000 -0.000389 -0.000000 -0.000000 -0.000000 -8.964204 -9.358858 -3.089408 42.657755 0.625725 0.272369 -9.090258 -3.797978 4.741877 -13.896910 0.029753 -0.230202 0.000001 0.000001 0.000000 
5.113231 95.041458 -65.930565 -9.328619 -1.037786 -4.196646 15.282511 1.209396 1.796360 7.933092 1.148345 0.399405 7.735345 1.511653 0.495044 -0.833683 0.518224 -0.259075 -0.830703 0.524667 -0.220425 -0.000001 0.000000 -0.000000 0.446088 -8.480868 -12.921059 -2.502998 0.734249 -65.747729 0.000001 -33.437809 -0.000002 -0.000001 0.000001 -0.000000 0.163983 6.499074 14.937347 1.421475 15.841784 52.723695 0.000001 33.471882 0.000006 -0.000001 -0.000001 -0.000000 -5.645483 -1.879031 2.318050 32.284047 7.743490 1.956552 -17.260496 -0.628297 -2.433092 0.000300 -0.000001 -0.000296 -0.000000 0.000000 -0.000000 -6.692440 -9.163394 -3.103274 44.533465 0.441311 -0.174979 -9.978684 -3.954637 5.828997 -16.939842 0.001577 -0.008721 -0.000000 0.000003 0.000000 
5.058271 94.816422 -67.131744 -9.516687 -1.487182 -4.210984 14.908153 1.997084 1.411616 7.925814 1.342704 0.359022 7.723008 1.707885 0.452859 -0.773819 0.351246 -0.206371 -0.769903 0.357210 -0.169438 0.000001 0.000000 -0.000000 0.462818 -8.096059 -12.837928 -0.335213 -0.161263 -66.555542 -0.000005 -30.687077 -0.000014 -0.000001 -0.000002 0.000001 0.132394 6.692870 14.976525 0.918856 15.780935 52.300698 -0.000006 35.272757 0.000028 0.000002 -0.000001 0.000001 -6.821128 -2.079726 2.337951 33.436115 8.254428 1.784667 -17.012683 -0.601949 -2.560173 0.000269 0.000001 -0.000349 0.000000 0.000000 -0.000000 -4.206706 -9.325615 -3.264867 45.827564 0.403265 -0.709941 -11.105832 -4.095498 6.436344 -18.665316 -0.124177 0.592811 0.000000 -0.000000 0.000000 
4.997281 94.540092 -68.332382 -9.704863 -1.879410 -4.097895 14.552633 2.754639 0.943406 7.931795 1.526234 0.278167 7.724103 1.892677 0.370591 -0.729042 0.170395 -0.151158 -0.724154 0.175960 -0.116048 0.000000 -0.000000 0.000000 0.482561 -7.711082 -12.636651 2.156493 -1.259455 -67.280273 -0.000012 -28.257766 -0.000000 -0.000002 -0.000000 -0.000000 0.094887 6.893685 15.157438 0.341267 15.601486 51.892560 0.000012 37.161953 0.000017 0.000002 -0.000001 0.000000 -8.035535 -2.315783 2.230518 34.644666 8.742109 1.600883 -16.778797 -0.568356 -2.685021 0.000348 -0.000000 -0.000330 0.000000 0.000000 -0.000000 -1.507199 -9.695719 -3.523096 46.401286 0.843418 -1.338823 -12.063482 -4.273483 6.859518 -20.151177 -0.272944 1.155021 0.000000 -0.000000 0.000000 
4.935557 94.236008 -69.538277 -9.887392 -2.229118 -3.889730 14.188681 3.550444 0.477082 7.951320 1.718242 0.208213 7.738488 2.086006 0.299354 -0.697944 -0.003388 -0.161218 -0.692020 0.001363 -0.128215 0.000001 -0.000000 0.000000 0.493690 -7.406068 -12.612481 4.830134 -2.544034 -67.729051 0.000009 -26.279797 0.000013 -0.000001 -0.000000 -0.000000 0.065788 7.041825 15.132170 -0.317625 15.346016 51.811332 0.000029 39.137069 -0.000013 0.000002 0.000002 -0.000001 -9.250505 -2.591523 2.009303 35.803872 9.243473 1.429523 -16.499017 -0.531864 -2.820259 0.000284 0.000001 -0.000372 0.000000 0.000000 -0.000000 1.347127 -10.167936 -3.811939 46.244882 1.934490 -2.129330 -12.632767 -4.434500 7.419136 -21.972106 -0.335626 1.265031 -0.000000 -0.000000 0.000000 
4.873440 93.919533 -70.761559 -10.054292 -2.566457 -3.620274 13.799958 4.525320 -0.058337 7.963754 1.942244 0.099851 7.744837 2.311192 0.189780 -0.626102 -0.209016 -0.156752 -0.619084 -0.204774 -0.125849 0.000001 0.000000 0.000000 0.510534 -7.009039 -12.475691 7.311385 -4.327963 -68.000926 -0.000008 -24.509297 0.000002 0.000002 -0.000000 0.000000 0.029992 7.212571 15.247369 -0.876054 14.869180 51.768770 0.000003 41.214987 0.000014 0.000001 0.000001 0.000000 -10.457412 -2.947079 1.673842 36.851060 9.625260 1.319445 -16.123150 -0.274654 -2.961302 0.000309 0.000001 -0.000357 -0.000000 0.000000 -0.000000 4.290289 -10.697680 -4.032308 45.434579 3.795432 -3.167550 -12.843260 -4.602351 8.078800 -24.188828 -0.254331 0.845883 0.000000 0.000000 0.000000 
4.809814 93.592537 -72.020576 -10.193522 -2.932461 -3.323710 13.380919 5.503923 -0.482095 7.959599 2.159354 -0.009010 7.735065 2.528298 0.080412 -0.527638 -0.427793 -0.149399 -0.519579 -0.423933 -0.120571 0.000001 0.000000 -0.000000 0.523157 -6.687954 -12.383924 9.454258 -6.069757 -68.223891 -0.000003 -23.205682 -0.000013 0.000001 0.000000 0.000000 -0.006118 7.432383 15.322993 -1.350718 14.330065 51.798587 0.000000 43.508534 0.000014 0.000002 0.000001 0.000001 -11.688740 -3.193190 1.367360 37.804793 9.659032 1.174576 -15.657633 0.217582 -2.998736 0.000316 0.000001 -0.000376 0.000000 -0.000000 -0.000000 7.240806 -11.173045 -4.122338 44.129856 6.281847 -4.399987 -12.834725 -4.742267 8.688467 -26.606536 0.002285 -0.006586 0.000000 0.000002 0.000000 
4.743731 93.247543 -73.340515 -10.287720 -3.366177 -3.029384 13.022853 6.674817 -1.082259 7.953025 2.412659 -0.124525 7.722180 2.780411 -0.035240 -0.420697 -0.644079 -0.155323 -0.411509 -0.640642 -0.128562 -0.000001 -0.000000 -0.000000 0.538350 -6.258428 -12.323706 11.922952 -7.675869 -68.172378 0.000007 -23.099461 0.000003 0.000001 -0.000000 -0.000000 -0.044117 7.668829 15.412667 -1.886670 13.777803 51.929600 0.000011 45.617478 -0.000008 0.000002 0.000002 -0.000000 -12.988291 -3.534627 1.031117 38.703472 9.693931 1.042139 -15.101654 0.877578 -3.065872 0.000351 -0.000001 -0.000335 -0.000000 0.000000 -0.000000 10.040861 -11.819219 -4.045850 42.983535 9.300897 -5.939857 -13.868653 -4.999267 8.591416 -26.446605 0.260948 -0.760603 0.000001 0.000001 0.000000 
4.674351 92.880951 -74.743660 -10.312994 -3.883613 -2.772821 12.708022 7.977992 -1.485869 7.934972 2.697294 -0.235805 7.696855 3.065180 -0.147406 -0.306951 -0.885107 -0.157649 -0.296705 -0.882058 -0.132842 0.000003 0.000000 -0.000000 0.553529 -5.797339 -12.326675 14.336106 -9.246381 -68.098878 -0.000012 -23.364677 -0.000005 -0.000000 -0.000000 0.000000 -0.075479 7.831271 15.414072 -2.277160 13.255006 52.021272 0.000013 47.996545 0.000002 0.000003 0.000000 0.000000 -14.407830 -3.804451 0.756588 39.555661 9.723554 0.947719 -14.449532 1.549164 -3.178042 0.000316 0.000002 -0.000400 0.000000 0.000000 -0.000000 12.430780 -12.621676 -3.992658 41.756140 9.352922 -7.661574 -15.146855 -2.151507 9.733619 -25.321625 0.660111 -2.045597 -0.000000 0.000001 0.000000 
4.593606 92.484383 -76.256035 -10.250807 -4.479133 -2.563215 12.462472 9.254952 -1.976353 7.876076 2.969095 -0.328244 7.631261 3.334978 -0.240283 -0.261016 -1.100524 -0.154865 -0.249829 -1.098013 -0.132018 0.000000 0.000000 -0.000000 0.576227 -5.133141 -12.208739 16.899292 -10.670892 -67.933437 -0.000005 -24.273249 0.000018 0.000001 -0.000000 0.000000 -0.112225 8.011656 15.514071 -2.659176 13.108123 51.895566 -0.000025 50.050868 0.000025 0.000002 -0.000000 0.000000 -15.989382 -4.012880 0.584404 40.382739 9.754764 0.865305 -13.691548 2.206245 -3.328305 0.000245 0.000000 -0.000429 0.000000 -0.000000 -0.000000 14.437278 -12.132248 -4.010028 40.428658 7.950182 -8.244533 -16.562345 1.041631 10.861834 -23.915919 0.920742 -3.269596 0.000000 -0.000001 0.000000 
